<?xml version="1.0" standalone="no"?><!DOCTYPE svg PUBLIC "-//W3C//DTD SVG 1.1//EN" "http://www.w3.org/Graphics/SVG/1.1/DTD/svg11.dtd"><svg t="1503985719837" class="icon" style="" viewBox="0 0 1024 1024" version="1.1" xmlns="http://www.w3.org/2000/svg" p-id="9083" xmlns:xlink="http://www.w3.org/1999/xlink" width="200" height="200"><defs><style type="text/css"></style></defs><path d="M512.008946 1023.999996c-55.948958 0-211.301161-247.042356-212.838417-249.535928C250.14816 696.242777 136.230361 500.778925 136.230361 375.76071 136.230361 168.561877 304.801176 0 512.008946 0c75.075279 0 147.567611 22.093582 209.620905 63.87655C730.04007 69.534009 732.274453 80.956176 726.616995 89.375332c-5.684271 8.410219-17.097501 10.635665-25.489845 4.969268-55.984708-37.689578-121.380639-57.602402-189.118203-57.602402C325.053626 36.742199 172.963623 188.832202 172.963623 375.76071c0 194.695224 293.481779 592.290328 339.751389 611.309399 53.097885-15.193807 338.303508-423.799951 338.303508-611.309399 0-62.687858-17.222627-123.918898-49.85356-177.070409-5.29102-8.642595-2.57401-19.957512 6.068585-25.257469 8.642595-5.317832 19.948574-2.600822 25.275344 6.041772 36.134447 58.925157 55.260768 126.805722 55.260768 196.286105 0 126.367783-112.067729 320.866381-160.223158 398.640795C721.218725 784.581356 572.194295 1023.999996 512.008946 1023.999996z" p-id="9084"></path><path d="M512.008946 532.399918c-102.379443 0-185.686191-83.279935-185.686191-185.677253 0-102.370506 83.306747-185.668316 185.686191-185.668316 102.361568 0 185.641503 83.29781 185.641503 185.668316C697.641512 449.111046 614.370515 532.399918 512.008946 532.399918zM512.008946 197.796548c-82.118055 0-148.935054 66.816999-148.935054 148.926116 0 82.126993 66.816999 148.935054 148.935054 148.935054 82.10018 0 148.890366-66.808061 148.890366-148.935054C660.899313 264.613547 594.100189 197.796548 512.008946 197.796548z" p-id="9085"></path></svg>