<?xml version="1.0" standalone="no"?><!DOCTYPE svg PUBLIC "-//W3C//DTD SVG 1.1//EN" "http://www.w3.org/Graphics/SVG/1.1/DTD/svg11.dtd"><svg t="1503985434561" class="icon" style="" viewBox="0 0 1024 1024" version="1.1" xmlns="http://www.w3.org/2000/svg" p-id="1441" xmlns:xlink="http://www.w3.org/1999/xlink" width="200" height="200"><defs><style type="text/css"></style></defs><path d="M511.999734 897.675164c-0.199475 0.066897-0.374624 0.180014-0.550989 0.246911C335.682087 833.485572 190.385233 602.301355 190.385233 408.067448c0-22.249976 1.106843-47.826562 5.644899-69.790704-1.791626 1.039946-3.678124 2.213686-5.559757 3.3631l8.106712-5.002687 313.422647-198.615059L511.999734 88.686094c-2.437487-0.086358-4.845783 0-7.28327 0.488957-0.508418 0.132578-0.974265 0.356379-1.487548 0.488957-2.874143 0.727354-5.800587 1.307534-8.499581 2.855898L162.813897 302.869933c-12.794375 7.393954-18.135196 17.760572-17.070924 29.382423l-0.39895 0 0 15.630812c-0.997375 19.133787 0.731003 43.312832 0.731003 60.16482 0 210.616399 152.404975 462.065572 365.349392 530.040324 0.200691-0.065681 0.37584-0.156904 0.552205-0.222585l0-40.190562L511.999734 897.675164zM511.999734 897.675164c0.199475 0.066897 0.37584 0.180014 0.555854 0.246911 175.761793-64.436504 321.063512-295.62072 321.063512-489.854627 0-22.249976-1.106843-47.826562-5.649764-69.790704 1.796491 1.039946 3.678124 2.213686 5.559757 3.3631l-8.105496-5.002687L511.999734 138.022098 511.999734 88.686094c2.437487-0.086358 4.850648 0 7.28327 0.488957 0.513283 0.132578 0.974265 0.356379 1.487548 0.488957 2.879008 0.727354 5.801803 1.307534 8.499581 2.855898L861.18557 302.869933c12.79924 7.393954 18.135196 17.760572 17.070924 29.382423l0.39895 0 0 15.630812c0.998591 19.133787-0.731003 43.312832-0.731003 60.16482 0 210.616399-152.404975 462.065572-365.344527 530.040324-0.199475-0.065681-0.380705-0.156904-0.555854-0.222585l0-40.190562L511.999734 897.675164zM511.999734 897.675164" p-id="1442"></path></svg>