<?xml version="1.0" standalone="no"?><!DOCTYPE svg PUBLIC "-//W3C//DTD SVG 1.1//EN" "http://www.w3.org/Graphics/SVG/1.1/DTD/svg11.dtd"><svg t="1503985602585" class="icon" style="" viewBox="0 0 1025 1024" version="1.1" xmlns="http://www.w3.org/2000/svg" p-id="5216" xmlns:xlink="http://www.w3.org/1999/xlink" width="200.1953125" height="200"><defs><style type="text/css"></style></defs><path d="M1024 160.362l0.008-95.967-320.012-0.031c-62.971 0-149.941 30.022-194.728 83.769C463.616 93.673 383.32 64 319.993 64L95.997 64 0 64l0 736.348 0.015 96.029 289.082-0.023c67.924 0.253 144.521 23.88 176.083 74.986 6.962 12.313 25.284 21.105 46.806 21.105 21.607 0 39.976-8.851 46.888-21.226 31.611-51.023 108.146-74.613 176.008-74.866l289.127 0.023L1024 800.348 1024 160.362zM512.467 928.252c-0.16-0.001-0.32-0.008-0.48-0.008-0.134 0-0.267 0.006-0.401 0.006-5.602-13.521-16.321-27.25-31.509-39.25L480 889l0-0.057C441 857.649 373.855 833.046 288.001 832L256 832.031 256 832 64.017 832 64 736.349 64 128l95.996 0 95.998 0C344.367 128 480 167.987 480 256.36L480 512l0 192 64 0L544 512 544 256.36c0-88.373 135.636-127.997 223.993-127.997l192.017 0.031L960 224.361l0 511.987L960.009 832 768 832l0 0.021-32.043-0.008 0.045-0.013C614.365 832.001 536.962 878.131 512.467 928.252z" p-id="5217"></path></svg>