<?xml version="1.0" standalone="no"?><!DOCTYPE svg PUBLIC "-//W3C//DTD SVG 1.1//EN" "http://www.w3.org/Graphics/SVG/1.1/DTD/svg11.dtd"><svg t="1503985695931" class="icon" style="" viewBox="0 0 1024 1024" version="1.1" xmlns="http://www.w3.org/2000/svg" p-id="8401" xmlns:xlink="http://www.w3.org/1999/xlink" width="200" height="200"><defs><style type="text/css"></style></defs><path d="M492.8 64v57.6h204.8v57.6H492.8v243.2h57.6V243.2h140.8V448h57.6V243.2h121.6v179.2h57.6V179.2h-179.2V128h179.2V64H492.8zM230.4 64v326.4H89.6v64h140.8v486.4h57.6V454.4h140.8v-57.6H288V64h-57.6z m121.6 102.4l-19.2 179.2h57.6l19.2-179.2h-57.6z m-243.2 0L128 345.6h57.6l-19.2-179.2h-57.6z m684.8 166.4h38.4v-38.4h-38.4v38.4z m-198.4 0h38.4v-38.4h-38.4v38.4z m198.4 76.8h38.4v-38.4h-38.4v38.4z m-198.4 0h38.4v-38.4h-38.4v38.4zM512 492.8v57.6h153.6l-32 44.8H492.8V960h64v-300.8H640v262.4h64v-262.4h57.6v262.4h57.6v-262.4h57.6V960h57.6V595.2h-236.8l32-44.8h185.6v-64H512z m-179.2 0l38.4 384h57.6l-38.4-384h-57.6zM128 492.8l-38.4 384h57.6l38.4-384H128z" fill="" p-id="8402"></path></svg>