<?xml version="1.0" standalone="no"?><!DOCTYPE svg PUBLIC "-//W3C//DTD SVG 1.1//EN" "http://www.w3.org/Graphics/SVG/1.1/DTD/svg11.dtd"><svg t="1503985676297" class="icon" style="" viewBox="0 0 1024 1024" version="1.1" xmlns="http://www.w3.org/2000/svg" p-id="8185" xmlns:xlink="http://www.w3.org/1999/xlink" width="200" height="200"><defs><style type="text/css"></style></defs><path d="M854.464257 144.652518 170.275593 144.652518c-58.328453 0-105.783255 47.453778-105.783255 105.783255l0 513.766226c0 58.332547 47.454802 105.784278 105.783255 105.784278L854.464257 869.986277c58.329477 0 105.783255-47.451732 105.783255-105.784278L960.247512 250.435773C960.242396 192.105273 912.788617 144.652518 854.464257 144.652518L854.464257 144.652518zM891.401518 793.020348c-0.005117 4.613064-3.749394 8.359388-8.359388 8.359388L141.295562 801.379737c-2.235924 0-4.334725-0.870834-5.91164-2.451842-1.576915-1.572822-2.447748-3.669576-2.447748-5.90243l0.00307-571.286268c0-4.604878 3.749394-8.355295 8.356318-8.355295l741.749638 0c2.230808 0 4.328585 0.870834 5.906523 2.448772 1.577938 1.577938 2.448772 3.676739 2.448772 5.9055L891.400494 793.020348 891.401518 793.020348zM680.246377 485.72559 434.661076 307.114656c-4.591575-3.346211-10.022261-5.109368-15.706727-5.109368-4.189416 0-8.378831 1.006933-12.113899 2.905166-8.997931 4.584412-14.588253 13.700023-14.588253 23.794939l0 357.226984c0 10.093892 5.589298 19.209504 14.588253 23.795962 3.735068 1.89721 7.924483 2.90312 12.113899 2.90312 5.684466 0 11.115152-1.76418 15.706727-5.104251L680.246377 528.912182c6.885827-5.010107 10.992355-13.08297 10.992355-21.594831C691.238732 498.80549 687.131181 490.730581 680.246377 485.72559L680.246377 485.72559zM615.007537 510.321778 451.555861 629.201306c-0.647753 0.467651-1.413186 0.707105-2.183735 0.707105-0.576121 0-1.152243-0.132006-1.683339-0.401136-1.246387-0.63445-2.031263-1.915629-2.031263-3.311419l0-237.754962c0-1.39579 0.784876-2.674922 2.031263-3.309372 1.243317-0.63445 2.739391-0.515746 3.867074 0.303922l163.451676 118.881574c0.960885 0.695848 1.531889 1.811252 1.531889 3.001357C616.539426 508.503363 615.968421 509.62593 615.007537 510.321778L615.007537 510.321778zM615.007537 510.321778" p-id="8186"></path></svg>